<svg class="logo" viewBox="0 0 608 608" xmlns="http://www.w3.org/2000/svg"><g data-name="Layer 2"><path d="M304 0a304 304 0 1 0 0 608 304 304 0 0 0 0-608Zm82 438q-47 29-72 29-32 0-32-18 0-14 19-24l35-17q18-8 18-19t-17-11q-24 0-70 19t-69 20q-27 0-45-18t-18-45a89 89 0 0 1 2-19q11-54 46-105 53-78 122-94a34 34 0 0 1 8-1q11 0 18 11a40 40 0 0 1 7 22 28 28 0 0 1-5 15q-8 14-36 16-31 3-44 16-16 15-16 24 0 25 20 25 8 0 30-12l44-21q28-12 50-12 38 0 59 29 19 26 19 66 0 79-73 123Z" data-name="Layer 1"/></g></svg>