<svg xmlns="http://www.w3.org/2000/svg" viewBox="0 0 608 608"><g id="Layer_2" data-name="Layer 2"><g id="Layer_1-2" data-name="Layer 1"><path d="M304,0C136.11,0,0,136.11,0,304S136.11,608,304,608,608,471.89,608,304,471.89,0,304,0Zm82.14,437.49q-47.36,29.24-72.05,29.24-32.54,0-32.53-18.12,0-13.59,18.94-23.88,17.29-7.83,35.62-16.27t18.32-19.14q0-11.52-17.29-11.53-24.3,0-70.62,19.35t-69,19.35q-26.76,0-44.46-17.91T135.39,353.5A88.57,88.57,0,0,1,137,335.38q11.11-53.94,45.7-105,53.12-78.22,122.7-94.29a34,34,0,0,1,7.41-.83q11.11,0,18.12,10.5a39.78,39.78,0,0,1,7,22.44A28.27,28.27,0,0,1,333.44,183q-8.25,13.58-36.23,16.46-30.88,2.48-44.06,15.24-16.47,15.64-16.47,24.7,0,24.3,20.59,24.3,7.41,0,30.05-11.53,32.12-16.47,44.06-21.41,28-11.52,49.41-11.53,37.88,0,58.88,29.23,18.93,26,18.94,65.47Q458.61,392.61,386.14,437.49Z"/></g></g></svg>