<svg class="logo" xmlns="http://www.w3.org/2000/svg" viewBox="0 0 608 608"><g data-name="Layer 2"><path d="M304 0a304 304 0 1 0 0 608 304 304 0 0 0 0-608Zm82.1 437.5q-47.3 29.2-72 29.2-32.6 0-32.5-18 0-13.7 18.9-24l35.6-16.2q18.3-8.4 18.3-19.2 0-11.5-17.3-11.5-24.3 0-70.6 19.3t-69 19.4q-26.7 0-44.4-18t-17.7-45a88.6 88.6 0 0 1 1.6-18.1q11.1-54 45.7-105 53.1-78.2 122.7-94.3a34 34 0 0 1 7.4-.8q11.1 0 18.1 10.5a39.8 39.8 0 0 1 7 22.4 28.3 28.3 0 0 1-4.5 14.8q-8.2 13.6-36.2 16.5-30.9 2.4-44 15.2-16.5 15.6-16.5 24.7 0 24.3 20.6 24.3 7.4 0 30-11.5 32.1-16.5 44-21.4 28-11.6 49.5-11.6 37.9 0 58.9 29.3 18.9 26 19 65.4 0 78.7-72.6 123.6Z" data-name="Layer 1"/></g></svg>