<svg xmlns="http://www.w3.org/2000/svg" viewBox="0 0 1056.07 354.96"><defs><style>.cls-1{fill:#fff;}</style></defs><g id="Layer_2" data-name="Layer 2"><g id="Layer_1-2" data-name="Layer 1"><g id="Layer_2-2" data-name="Layer 2"><g id="Layer_1-2-2" data-name="Layer 1-2"><path class="cls-1" d="M218.14,6.2A11.89,11.89,0,0,1,230,18.09c0,.33,0,.66-.05,1-.72,8.74-1,18.63-1,33V218.32c0,14.1.31,23.49,1.13,33.06a11.87,11.87,0,0,1-10.86,12.8c-.32,0-.65,0-1,0H178.08a11.87,11.87,0,0,1-11.87-11.87c0-.33,0-.67,0-1,.73-8.86,1-18.73,1-33V170a11.88,11.88,0,0,0-11.87-11.88H74.62A11.89,11.89,0,0,0,62.75,170v48.28c0,13.84.29,23.74,1.08,33.09A11.84,11.84,0,0,1,53,264.18c-.35,0-.71,0-1.06,0H11.87A11.88,11.88,0,0,1,0,252.33c0-.33,0-.66,0-1,.72-8.74,1-18.63,1-33V52.1C1,37.75.76,28,0,19.1A11.91,11.91,0,0,1,10.88,6.24c.32,0,.64,0,1,0H52A11.89,11.89,0,0,1,63.91,18.11c0,.33,0,.66,0,1-.81,9.71-1.11,19.63-1.11,33V91.71a11.89,11.89,0,0,0,11.87,11.87h80.77a11.88,11.88,0,0,0,11.87-11.87V52.1c0-14.08-.27-24.26-1-33A11.91,11.91,0,0,1,177.1,6.24c.34,0,.68,0,1,0Z"/><path class="cls-1" d="M470.87,264.22a250.6,250.6,0,0,0-7.44-33.49l-8.38-26.36H366.67l-8.38,26.36a179.64,179.64,0,0,0-7.75,33.49H278c4.66-9.3,7.45-16.74,14.89-37.83l67-186.69c5.58-15.2,8.37-24.5,9.92-33.5h80.94c2.17,9,4.34,17.06,10.54,33.5l67.3,186.69c5.89,16.43,10.86,29.15,14.89,37.83Zm-60.47-205-28.85,93h58.31Z"/><path class="cls-1" d="M589.65,264.22c1.86-13.64,2.48-27.6,2.48-45.9V50.55a344.31,344.31,0,0,0-2.48-45.28c14.57.62,25.74.93,45.58.93h67.92c61.4,0,95.21,29.46,95.21,83.42,0,55.21-35.36,88.08-95.52,88.08h-49v39.69a404.85,404.85,0,0,0,2.48,46.83ZM700.05,125c21.71,0,34.42-12.1,34.42-33.49s-12.09-32.57-34.42-32.57H653.84V125Z"/><path class="cls-1" d="M907.83,180.18c1.24,11.16,3.41,16.75,8.06,22.95,7.44,9.3,20.47,14.57,36.28,14.57,23.88,0,38.15-10.54,38.15-27.91,0-9.61-5-18-13-21.71-6.51-3.1-14.26-5.27-46.52-12.71-28.52-6.2-38.45-9.92-49.92-18-19.57-13.63-30.11-34.37-30.11-59.53C850.77,30.08,889.22,0,950.31,0c39.39,0,69.47,12.09,86.22,35.35,7.75,10.24,11.47,19.54,15.5,37.22L986.29,79.7c-3.72-20.16-14.89-28.53-38.46-28.53C929,51.17,915,61.4,915,75.67c0,8.68,4.65,15.2,14.57,19.85,6.21,2.79,6.21,2.79,42.8,10.23,23.57,5,38.46,10.24,50.24,17.68,22.33,13.95,33.49,34.73,33.49,63.26,0,23.26-7.44,43.11-21.7,57.06-18,17.37-45.28,26.36-81.57,26.36-26.35,0-52.41-5.58-69.15-15.19-15.51-8.68-27-22-33.5-39.7-3.1-7.44-4.65-14.57-6.82-28.84Z"/><path class="cls-1" d="M101.72,320h15.41a15.1,15.1,0,0,1,6.27,1.13q4.69,2.17,4.69,8a8.28,8.28,0,0,1-4.77,8.1,7,7,0,0,1,3,2.12,7.56,7.56,0,0,1,1.12,4.27l.16,4.55a14,14,0,0,0,.32,2.88,2.86,2.86,0,0,0,1.48,2.08v.76h-5.63a4.16,4.16,0,0,1-.37-1.13,21.86,21.86,0,0,1-.23-2.68l-.28-5.65q-.15-3.33-2.4-4.45a9.55,9.55,0,0,0-4-.63H106.31v14.54h-4.59Zm14.91,15.53a8.47,8.47,0,0,0,5-1.29q1.83-1.29,1.83-4.66c0-2.41-.85-4.05-2.55-4.94a8.21,8.21,0,0,0-3.66-.69H106.31v11.58Z"/><path class="cls-1" d="M196.12,320h24.6v4.16H200.6v10.29h18.59v3.92H200.6v11.49h20.46v4H196.12Z"/><path class="cls-1" d="M290.59,343a9.54,9.54,0,0,0,1.31,4.69c1.46,2.24,4.05,3.37,7.76,3.37a13.13,13.13,0,0,0,4.53-.74c2.64-1,4-2.66,4-5.12a4.47,4.47,0,0,0-1.68-3.95,16.55,16.55,0,0,0-5.32-2l-4.45-1a20,20,0,0,1-6.17-2.23,7.21,7.21,0,0,1-3.13-6.35,9.9,9.9,0,0,1,3.08-7.5q3.09-2.93,8.71-2.93a14.77,14.77,0,0,1,8.81,2.57q3.63,2.58,3.63,8.23h-4.31a8.81,8.81,0,0,0-1.42-4.18q-2-2.66-6.84-2.65c-2.59,0-4.46.57-5.59,1.71a5.46,5.46,0,0,0-1.71,4,3.89,3.89,0,0,0,2,3.64,29.34,29.34,0,0,0,6,1.85l4.6,1.08a13.66,13.66,0,0,1,5.14,2.15,8.11,8.11,0,0,1,3.13,6.9q0,5.63-4,8a17.46,17.46,0,0,1-9.28,2.42c-4.12,0-7.33-1.07-9.66-3.23a11.1,11.1,0,0,1-3.42-8.7Z"/><path class="cls-1" d="M404.14,320v4H392.71v29.86h-4.63V324H376.66v-4Z"/><path class="cls-1" d="M475.11,320h5.2l12.3,33.9h-5l-3.44-10.15H470.73l-3.67,10.15h-4.71Zm7.55,20-5.15-15-5.46,15Z"/><path class="cls-1" d="M562.13,320v21a12.22,12.22,0,0,0,1.39,6.13c1.38,2.46,3.71,3.7,7,3.7q5.91,0,8-4a12.57,12.57,0,0,0,1.14-5.83V320h4.64v19c0,4.17-.56,7.37-1.69,9.62q-3.11,6.15-11.72,6.14t-11.69-6.14c-1.12-2.24-1.69-5.45-1.69-9.62V320Z"/><path class="cls-1" d="M652.24,320h15.4a15.18,15.18,0,0,1,6.28,1.13q4.7,2.17,4.69,8a8.33,8.33,0,0,1-4.78,8.1,7,7,0,0,1,3,2.12,7.56,7.56,0,0,1,1.12,4.27l.16,4.55a14,14,0,0,0,.33,2.88,2.82,2.82,0,0,0,1.47,2.08v.76h-5.64a5,5,0,0,1-.37-1.13,24,24,0,0,1-.23-2.68l-.28-5.65c-.1-2.22-.89-3.7-2.39-4.45a9.55,9.55,0,0,0-4-.63H656.83v14.54h-4.59Zm14.91,15.53a8.47,8.47,0,0,0,5-1.29Q674,333,674,329.58c0-2.41-.85-4.05-2.56-4.94a8.21,8.21,0,0,0-3.66-.69h-10.9v11.58Z"/><path class="cls-1" d="M756.05,320h5.19l12.3,33.9h-5l-3.44-10.15H751.67L748,353.89h-4.71Zm7.55,20-5.15-15L753,340Z"/><path class="cls-1" d="M838.1,320h5.41l16.91,27.39V320h4.38v33.9h-5.16l-17.15-27.35V353.9H838.1Z"/><path class="cls-1" d="M957.26,320v4H945.84v29.86H941.2V324H929.78v-4Z"/></g></g></g></g></svg>