<svg xmlns="http://www.w3.org/2000/svg" viewBox="0 0 1056 355">
  <defs/>
  <g id="Layer_2" data-name="Layer 2">
    <g id="Layer_1-2" data-name="Layer 1">
      <g id="Layer_2-2" data-name="Layer 2">
        <g id="Layer_1-2-2" data-name="Layer 1-2">
          <path class="cls-1" d="M218 6a12 12 0 0 1 12 12v1l-1 33v166l1 33a12 12 0 0 1-11 13h-41a12 12 0 0 1-12-12v-1l1-33v-48a12 12 0 0 0-12-12H75a12 12 0 0 0-12 12v48l1 33a12 12 0 0 1-11 13H12a12 12 0 0 1-12-12v-1l1-33V52L0 19A12 12 0 0 1 11 6h41a12 12 0 0 1 12 12v1l-1 33v40a12 12 0 0 0 12 12h80a12 12 0 0 0 12-12V52l-1-33a12 12 0 0 1 11-13h1ZM471 264a251 251 0 0 0-8-33l-8-27h-88l-9 27a180 180 0 0 0-7 33h-73c5-9 7-17 15-38l67-186 10-34h81l10 34 68 186c5 17 10 30 14 38ZM410 59l-28 93h58ZM590 264c2-13 2-27 2-46V51a344 344 0 0 0-2-46l45 1h68c62 0 95 30 95 84 0 55-35 88-95 88h-49v39a405 405 0 0 0 2 47Zm110-139c22 0 34-12 34-33s-12-33-34-33h-46v66ZM908 180c1 11 3 17 8 23 7 9 20 15 36 15 24 0 38-11 38-28 0-10-5-18-13-22-6-3-14-5-46-13-29-6-39-10-50-18a70 70 0 0 1-30-59c0-48 38-78 99-78 40 0 70 12 87 35 7 11 11 20 15 38l-66 7c-3-20-15-29-38-29-19 0-33 10-33 25 0 8 5 15 15 20l42 10c24 5 39 10 51 17 22 14 33 35 33 64 0 23-7 43-22 57-18 17-45 26-81 26-27 0-53-5-69-15-16-9-27-22-34-40-3-7-4-14-7-29ZM102 320h15a15 15 0 0 1 6 1q5 2 5 8a8 8 0 0 1-5 8 7 7 0 0 1 3 2 8 8 0 0 1 1 5l1 4a14 14 0 0 0 0 3 3 3 0 0 0 1 2v1h-5a4 4 0 0 1-1-1 22 22 0 0 1 0-3v-6q0-3-3-4a10 10 0 0 0-4-1h-10v15h-4Zm15 16a8 8 0 0 0 5-2l1-4c0-3 0-4-2-5a8 8 0 0 0-4-1h-11v12ZM196 320h25v4h-20v10h18v4h-18v12h20v4h-25ZM291 343a10 10 0 0 0 1 5c1 2 4 3 8 3a13 13 0 0 0 4-1c3-1 4-2 4-5a4 4 0 0 0-1-4 17 17 0 0 0-6-2l-4-1a20 20 0 0 1-6-2 7 7 0 0 1-4-6 10 10 0 0 1 4-8q3-3 8-3a15 15 0 0 1 9 3q4 2 4 8h-5a9 9 0 0 0-1-4q-2-3-7-3l-5 2a5 5 0 0 0-2 4 4 4 0 0 0 2 4 29 29 0 0 0 6 1l4 1a14 14 0 0 1 6 3 8 8 0 0 1 3 7q0 5-4 8a17 17 0 0 1-10 2c-4 0-7-1-9-3a11 11 0 0 1-4-9ZM404 320v4h-11v30h-5v-30h-11v-4ZM475 320h5l13 34h-5l-4-10h-13l-4 10h-5Zm8 20-5-15-6 15ZM562 320v21a12 12 0 0 0 2 6c1 3 3 4 7 4q5 0 8-4a13 13 0 0 0 1-6v-21h4v19l-1 10q-4 6-12 6t-12-6l-1-10v-19ZM652 320h16a15 15 0 0 1 6 1q5 2 5 8a8 8 0 0 1-5 8 7 7 0 0 1 3 2 8 8 0 0 1 1 5v4a14 14 0 0 0 0 3 3 3 0 0 0 2 2v1h-6a5 5 0 0 1 0-1 24 24 0 0 1 0-3l-1-6c0-2 0-3-2-4a10 10 0 0 0-4-1h-10v15h-5Zm15 16a8 8 0 0 0 5-2q2-1 2-4c0-3-1-4-3-5a8 8 0 0 0-3-1h-11v12ZM756 320h5l13 34h-5l-4-10h-13l-4 10h-5Zm8 20-6-15-5 15ZM838 320h6l16 27v-27h5v34h-5l-18-27v27h-4ZM957 320v4h-11v30h-5v-30h-11v-4Z"/>
        </g>
      </g>
    </g>
  </g>
</svg>
